<svg id="aff4fc45-edf2-4fda-90c6-3eac0614c52d" data-name="Слой 1" xmlns="http://www.w3.org/2000/svg" width="72" height="38.73" viewBox="0 0 72 38.73">
  <defs>
    <style>
      .eb966f9c-5a45-44a0-808f-4f78f84151cd {
        fill: #fff;
      }

      .b99a7faf-b07d-4197-89ad-a0b46aa70979 {
        fill: #00002f;
      }

      .bdf4b109-0dd3-4642-86dd-6f35840f7a4e {
        fill: #ffdc76;
      }

      .f568c447-0a8f-4358-b5a0-b2868d26c2b2 {
        fill: #010202;
      }
    </style>
  </defs>
  <g>
    <path class="eb966f9c-5a45-44a0-808f-4f78f84151cd" d="M70,27a2.53,2.53,0,0,0,.18-.55,2.21,2.21,0,0,0,.88-1,2.27,2.27,0,0,0-.5-2.48c-.65-.65-1.11-.68-3.33-.81-1.18,0-3.08-.1-4.46-.1-3,0-6.66,0-9.4.2h-.9a2.28,2.28,0,0,0,.65-1.77,5.23,5.23,0,0,0,3.19-2.74c.79.08,1.3.13,1.55.13h.47a2.29,2.29,0,0,0,1.85-2.15,2.12,2.12,0,0,0-.39-1.4l1-.93a5.61,5.61,0,0,0,2.5-1.08l.18-.12a3.72,3.72,0,0,0,.9-.78,8.39,8.39,0,0,0,.8-.57l.28-.25h.28c.32-.42.67-.88,1-1.4C69,6,70.51,3,63,4.53s-9.5,2.39-9.5,2.39S49.64,4.67,38.78,5.61c-3.74.32-6.75.53-9.07.67V18.83a5.21,5.21,0,0,0,3.37,2.11A2.26,2.26,0,0,0,33.7,22a2.29,2.29,0,0,0,1.66.67h.28v.1h-14c-5.54.23-5.81.33-6.51,1.08a4.6,4.6,0,0,0,.57,4.63,2.18,2.18,0,0,0-1.1,2.08,2.3,2.3,0,0,0,2.3,2.13h.63a51.91,51.91,0,0,0,8.19-1.66c3.44-.87,5.64-1.35,7.22-1.67a4.51,4.51,0,0,0,2,1.67,3.94,3.94,0,0,0,1.51.36c.1.34.21.67.33,1,0,.12.12.48.22.9a4.05,4.05,0,0,0,.73,2,2.18,2.18,0,0,0,1.67,1.52,2.26,2.26,0,0,0,1.58.63h.35a2.32,2.32,0,0,0,1.15.3,2.28,2.28,0,0,0,.73-.12,2.18,2.18,0,0,0,.87-.53h.15a2.4,2.4,0,0,0,2.38-2.21s.16-.55.38-1.1a18.48,18.48,0,0,0,.66-2l.1-.43,1.07-.27a11.7,11.7,0,0,0,1.66-.48A4.37,4.37,0,0,0,52.29,29c1.66.19,4.24.57,6.66,1,5.61,1,7.54,1.32,9.39,1.5l.86.1h.47a2.4,2.4,0,0,0,2.18-1.47,2.31,2.31,0,0,0-.6-2.53A2.49,2.49,0,0,0,70,27Z"/>
    <g>
      <path class="b99a7faf-b07d-4197-89ad-a0b46aa70979" d="M37.67,8.12c-.25.06-.16.15.5.31s.67.19.67.4a1.28,1.28,0,0,0,.13.39,1.91,1.91,0,0,1,.15.58,2.19,2.19,0,0,0,.09.5s.18-.13.36-.37c.35-.51.4-.5.35-.35s0,.15.17,0a2.06,2.06,0,0,0,.31-.28c.09-.1.12-.08.27.17a1.27,1.27,0,0,1,.17.58c0,.25,0,.28.1.16s.08-.13.28.22.2.33.2.13.08-.05.18.15a1.11,1.11,0,0,0,.25.35v.14a3,3,0,0,0,.22.66,2.26,2.26,0,0,1,.13.8.89.89,0,0,0,0,.68l.2-.08c.17.35.15.28.17.17s.13-.68.28-1.25c.28-1.13.83-2.2.83-1.87v.17l.15-.22.15-.21.3.61a2.66,2.66,0,0,0,.34.59,6.17,6.17,0,0,0-.15-.84c-.15-.74-.15-1.06,0-1.06a.89.89,0,0,1,.29.15c.32.2.37.12.32,0s.1,0,.53.33a2,2,0,0,0,.62.43,4.13,4.13,0,0,0,.13-.63c0-.35.09-.61.15-.48s.14,0,.22-.3a.83.83,0,0,1,.5-.53,1.86,1.86,0,0,0,.38-.25,1.61,1.61,0,0,1,.55-.25c.55-.24.57-.24.32-.24A48.75,48.75,0,0,0,39,7.42a19.48,19.48,0,0,0-2.74.41A2.57,2.57,0,0,0,37,8C37.44,8.12,37.92,8.05,37.67,8.12Z"/>
      <path class="b99a7faf-b07d-4197-89ad-a0b46aa70979" d="M59,11.58c2.3-.38,2.08-.32,3.25-1.1.43-.27.5-.46,0-.27s-.37.1.3-.23a7.6,7.6,0,0,0,1.14-.73c.44-.37,3.47-3.38,2.25-2.68A25.58,25.58,0,0,1,61,9.15a13.38,13.38,0,0,0-4.27,2.53v0c-.22.15-.24.27,0,.24Z"/>
      <path class="b99a7faf-b07d-4197-89ad-a0b46aa70979" d="M53.42,24.7c-4.46.2-5.16.31-4.78.31h0c.55.1,6.36,0,9.72-.15s8.29-.23,9.72-.11a3.31,3.31,0,0,0,.77,0A7.46,7.46,0,0,0,67,24.58C64.67,24.43,58.18,24.48,53.42,24.7Z"/>
      <path class="b99a7faf-b07d-4197-89ad-a0b46aa70979" d="M29.71,12.07c1.12.13.9,0,.44-.41-.14-.11-.3-.19-.44-.29Z"/>
      <path class="b99a7faf-b07d-4197-89ad-a0b46aa70979" d="M42.57,19.35l.11.49v-.4a19.7,19.7,0,0,0,.09-2.83V14.18l-.2,1.43A11.18,11.18,0,0,0,42.57,19.35Z"/>
      <path class="b99a7faf-b07d-4197-89ad-a0b46aa70979" d="M68.62,29.64c-1.33-.13-3.63-.52-7-1.18a77.76,77.76,0,0,0-9.84-1.55l-1.2-.08v-.49H64.47l2.87.1c.81,0,.68,0-.74-.1-3.42-.28-6.84-.4-11.5-.4H48.29c-.86,0-.15.19,1.12.19a3.42,3.42,0,0,1,1.15.13,1,1,0,0,1,0,.25c-.05.12-.07.12-.55.12a5.5,5.5,0,0,0-1.67.08l.95.08a5.36,5.36,0,0,1,1,.12c.09.08-.1.42-.44.78a3.35,3.35,0,0,1-2.82.84,7.68,7.68,0,0,1-2.59-.9,3.76,3.76,0,0,1-1.2-.94c.23-.16.46-.31.71-.45l.69-.39h-1l.68-.24c.67-.23.72-.26,1.9-1.26.9-.77,1.2-1,1.07-1.05s-.17-.17-.34-1.22l-.18-1.18.37-.35a1.75,1.75,0,0,1,.46-.35l1.67.48c.83.27,1.54.45,1.54.45a13,13,0,0,0-1.28-.79l-1.3-.77.24-.2c.28-.28.3-.28,1.66-.28.77-.05,1.6-.19,1.88-.19a3.33,3.33,0,0,0,2.65-2.53c.17-.6.2-.6.35-.6l1.48.17a9.16,9.16,0,0,0,1.43.13,13.92,13.92,0,0,0-1.66-.53L54.4,15l1.13-.09,1.25-.15a8.33,8.33,0,0,0-1.41-.15l-1.52-.1-2,.66-2,.67-.55-.54c-.5-.48-.5-.54-.5-.74A11.42,11.42,0,0,1,50,12.28c.46-.77.56-1,.21-.58l-1.29,1.81-1.12,1.57v1.49l-.58.2-.58.2L46.9,16a8.68,8.68,0,0,0,.23-1,7.6,7.6,0,0,0-1,1.19l-1,1.29-.92.29c-.34.11-.67.23-1,.37h2.3l.27.57.26.56v4.13l-2,.43-2,.44-1.39-.54-1.42-.55a17.83,17.83,0,0,0,.1-1.86l.12-1.85.33-.6.35-.63h1a.47.47,0,0,0,.17.33.48.48,0,0,0,.68-.05.48.48,0,1,0-.73-.63,5.7,5.7,0,0,1-.88-.38h.81l-.61-.27L40,17l-.91-1.24a7.38,7.38,0,0,0-1-1.13,15,15,0,0,0,.61,2.18c0,.1-.13.07-.78-.18l-.82-.3V14.68l-1.11-1.87c-.62-1-1.15-1.83-1.15-1.83a9.17,9.17,0,0,0,.37,1.12c.21.56.48,1.33.56,1.66l.17.62-.38.58a3.21,3.21,0,0,1-.45.58L33.71,15l-1.41-.53H29.71v.16a5.11,5.11,0,0,0,.62,0h.93l-.43.13-1.12.32v.41c.44-.06.81-.1.87-.12s.2,0,.29.39a4.07,4.07,0,0,0,1,1.88c.75.73,1.45.95,3.65,1.06,1.18.07,1.38.1,1.56.24a1.24,1.24,0,0,1,.22.18,1.87,1.87,0,0,1-.39.22,14.41,14.41,0,0,0-1.58.88,10.36,10.36,0,0,0,1.25-.3l1.22-.32.36.35.37.35-.27,1.07a6.15,6.15,0,0,1-.33,1.11,7.84,7.84,0,0,0,1,1.33l1,1.3.67.25.67.25h-.8a2.26,2.26,0,0,0,.53.44l.57.38-.34.28c-.24.2-.5.39-.76.57l-.52.35a6.49,6.49,0,0,1-1,.4,4,4,0,0,1-2.66,0,2.9,2.9,0,0,1-1.17-1l-.13-.29h1.25c1.51-.06,1.53-.16,0-.16H34.83v-.47c0-.1.2-.1.91-.1A8.7,8.7,0,0,0,38,25.86a11.5,11.5,0,0,0-1.66,0H34.69V25.7c0-.52-.06-.45,1.27-.52s1.85-.2.76-.2H34.08c-2.7-.1-10.09-.1-12.37,0s-5,.35-5,.35h.46c1.92-.12,5.43-.2,11.24-.12l6.11.12a1.71,1.71,0,0,1,0,.32V26H32.16c-2.68.05-5.11.18-9.07.49-4.69.37-5.79.52-5.82.52h.21c1.67-.18,10.59-.63,15.17-.75h1.81v.28a.71.71,0,0,1,0,.29l-1.15.15a59.73,59.73,0,0,0-8.14,1.8,54.88,54.88,0,0,1-8,1.66h.19a49.87,49.87,0,0,0,7.75-1.53c4-1,6.48-1.52,8.14-1.77l1-.15c.23,0,.23,0,.23.17a3.7,3.7,0,0,0,.32,1.17,2.13,2.13,0,0,0,1,.86c.35.2.5.2,1.78.2H39l.45,1.23.45,1.23.75.09L41.7,32h0a19.81,19.81,0,0,0,2.88-.1c.3,0,.26,0,.58-1.67l.17-.91H46a3,3,0,0,0,1,0l1.21-.3a9.51,9.51,0,0,0,1.19-.33,2,2,0,0,0,1.14-1.45,1.86,1.86,0,0,1,.1-.39,48.81,48.81,0,0,1,8.59,1.37c5.51,1,7.44,1.3,9.21,1.46l1,.12h.15A5.4,5.4,0,0,0,68.62,29.64ZM50.79,15.87c.22,0,.48.52.48,1,0,.2-.11.35,0,.35s.39-.82.39-1.2v-.39l.68-.26a8.7,8.7,0,0,1,.9-.32c.21,0,.31,0,.31.25a2,2,0,0,1-.78,2.17,3.15,3.15,0,0,1-1.66.89l.1.07a3.51,3.51,0,0,1-2,0,3.27,3.27,0,0,1-1.35-1.23,1,1,0,0,1-.14-.37C47.79,16.77,50.57,15.91,50.79,15.87ZM37.64,17.31a3.46,3.46,0,0,1-1.08,1l0,0a3.15,3.15,0,0,1-2.26,0,3.32,3.32,0,0,1-1.41-.81,2,2,0,0,1-.87-2.1.68.68,0,0,1,.2-.4,9.83,9.83,0,0,1,1,.3l.89.3v.21a2.71,2.71,0,0,0,.15,1.2l.1.22v-.4a1.28,1.28,0,0,1,.39-.9c.13-.07.48,0,1.66.42.82.26,1.5.53,1.5.53A4.64,4.64,0,0,1,37.64,17.31ZM40,28.13c.13,0,.25-.05.38-.08l0,.14a3.78,3.78,0,0,0-.15.95l-.11.85-.14-.5C39.79,28.83,39.79,28.21,40,28.13Zm4.73,3.08c0,.3,0,.31-.46.43v.06a5.61,5.61,0,0,1-1.29.09,8,8,0,0,1-2.28-.2c-.58-.12-.58-.17-.58-.83v-.3l.12.25c.13.28.38.58.51.58a1.76,1.76,0,0,1,.44.15,2.84,2.84,0,0,0,1.29.15c1.7,0,2.14-.17,2.25-.93A1.69,1.69,0,0,1,44.68,31.21ZM45,28.34a4.45,4.45,0,0,1-.28,1.35c-.1,0-.1-.2-.1-.5a3,3,0,0,0-.13-.73l-.1-.2-.45.25-.47.15-.2-.27-.2-.26-.23.3-.24.3-.16-.34a1.46,1.46,0,0,0-.22-.33,1.33,1.33,0,0,0-.26.27l-.24.26-.13-.26c-.13-.19-.25-.4-.38-.19s-.42.14-.6,0a.89.89,0,0,0-.22-.11c.17,0,.34-.08.52-.1a11.61,11.61,0,0,1,3.53,0l.56.13Z"/>
      <path class="b99a7faf-b07d-4197-89ad-a0b46aa70979" d="M44.58,32.49a1.17,1.17,0,0,0-.26.46c0-.15-.2-.13-.57.09a.65.65,0,0,0-.3.45c-.13.28-.07.38-.13.16s0-.21-.67,0a3.1,3.1,0,0,1-.66.19c-.12,0-.24.06-.24.2v.2L41.64,34a1,1,0,0,0-.2-.28,3,3,0,0,1-.49-.2c-.38-.13-.38-.15-.5,0s-.11.15-.11,0a3.14,3.14,0,0,0-.69-1.67,15.09,15.09,0,0,1-.84-1.39,4.25,4.25,0,0,0-.44-.74s.52,2.3.54,2.33.13.5.25,1.07.23,1,.24,1a.36.36,0,0,0,.17-.3l.15-.32v.64a2.2,2.2,0,0,0,.08.68,1.76,1.76,0,0,0,.45-.24c.42-.26.54-.23.54.4a.86.86,0,0,0,.1.44,1.45,1.45,0,0,0,.3-.39l.25-.38.15.35c.16.32.26.37.38,0s.15-.35.25.17l-.12.13a1.63,1.63,0,0,0,.18.45,1.93,1.93,0,0,0,.32-.6c.27-.4.27-.55.27-.4a1,1,0,0,0,.15.32c.1.13.11.11.43-.35l.33-.5.1.45a1.2,1.2,0,0,0,.15.45.93.93,0,0,0,.15-.42,15.08,15.08,0,0,1,.49-1.43c.22-.57.41-1.16.58-1.75a6.85,6.85,0,0,0,.25-2,4.89,4.89,0,0,0-.24.93A4.38,4.38,0,0,1,44.58,32.49Z"/>
    </g>
    <g>
      <path class="bdf4b109-0dd3-4642-86dd-6f35840f7a4e" d="M31.07,10.74A28.84,28.84,0,0,1,16.82,36.83c-14.42-7.2-17-25.25-14.61-35C2.88,5.57,4.13,7.91,6.8,9.06a40.06,40.06,0,0,1,19.73-.17A11.17,11.17,0,0,0,30.47,2,57.41,57.41,0,0,1,31,10.76Z"/>
      <polygon class="f568c447-0a8f-4358-b5a0-b2868d26c2b2" points="14.51 7.35 16.91 12.86 18.55 7.28 14.51 7.35"/>
      <polygon class="f568c447-0a8f-4358-b5a0-b2868d26c2b2" points="1.78 15.35 5.74 17.47 2.16 17.71 1.78 15.35"/>
      <polygon class="f568c447-0a8f-4358-b5a0-b2868d26c2b2" points="2.76 19.66 5.17 20.64 3.12 21.19 2.76 19.66"/>
      <polygon class="f568c447-0a8f-4358-b5a0-b2868d26c2b2" points="31.14 16.91 27.87 18.29 30.54 18.69 31.14 16.91"/>
      <polygon class="f568c447-0a8f-4358-b5a0-b2868d26c2b2" points="29.82 20.88 27.41 21.6 29.43 22.32 29.82 20.88"/>
      <rect class="f568c447-0a8f-4358-b5a0-b2868d26c2b2" x="0.48" y="26.94" width="7.83" height="0.99"/>
      <rect class="f568c447-0a8f-4358-b5a0-b2868d26c2b2" x="0.48" y="24.53" width="7.83" height="0.99"/>
      <rect class="f568c447-0a8f-4358-b5a0-b2868d26c2b2" x="24.39" y="26.94" width="7.83" height="0.99"/>
      <rect class="f568c447-0a8f-4358-b5a0-b2868d26c2b2" x="24.39" y="24.53" width="7.83" height="0.99"/>
      <path class="f568c447-0a8f-4358-b5a0-b2868d26c2b2" d="M21.6,18.89H8.87V18h4a8.06,8.06,0,0,0,0-5.09,1.15,1.15,0,0,0-1.1-.63,3.8,3.8,0,0,0-3.25,2.4l-.79-.31a4.8,4.8,0,0,1,4.06-3.07A2,2,0,0,1,13.6,12.4,8.45,8.45,0,0,1,13.74,18h7a5.64,5.64,0,0,1,6.06-4v1a4.8,4.8,0,0,0-5.19,3.14h3.79V19Z"/>
      <path class="f568c447-0a8f-4358-b5a0-b2868d26c2b2" d="M22.2,23.23a4.79,4.79,0,0,1-1-4.32h-.89a4.84,4.84,0,0,0,.57,3.75H12.11a21,21,0,0,0,1.42-3.75h-.92a18.18,18.18,0,0,1-1.61,4l-.19.36,5,3.13L13,28.21l.48.72,3.12-2.07L20,29.05l.48-.72-3.12-1.92,4.8-3.2Zm-5.62,2.62-3.68-2.4h7.21Zm16-16.17A39.56,39.56,0,0,0,31.19.07c-2.4.92-6.61,3.77-7.59,6.75A48.08,48.08,0,0,0,9.18,7C8.46,3.8,4.59,1.37,1.68,0A23.41,23.41,0,0,0,.05,10.24h0A32.57,32.57,0,0,0,16.68,38.73,32,32,0,0,0,32.53,9.9ZM24.72,6.94m-.57,0h0Zm6.92,3.78A28.83,28.83,0,0,1,16.84,36.81C2.43,29.6-.22,11.56,2.23,1.83,2.91,5.55,4.16,7.88,6.82,9a40.18,40.18,0,0,1,19.73-.16A11.15,11.15,0,0,0,30.49,2,56.18,56.18,0,0,1,31,10.74Z"/>
    </g>
  </g>
</svg>
