<svg id="b3518a29-fb11-4d43-b944-58860b6584da" data-name="tomee" xmlns="http://www.w3.org/2000/svg" width="72" height="38" viewBox="0 0 72 38">
  <defs>
    <style>
      .eb0bd242-8fda-4d05-ab8e-c3484e501b6b {
        fill: #fff;
      }

      .b2a49257-9e74-4e95-841a-34d222a0291b {
        fill: #00002f;
      }

      .a6c6f039-ddf6-40ec-ab86-37a860d5ef6e {
        fill: #ffdc76;
      }

      .bca94a12-021b-4ff7-9e5e-16d09555eb8d {
        fill: #010202;
      }
    </style>
  </defs>
  <g id="fe14c7e1-6447-4c6e-bd19-8ffd7925b47b" data-name="group">
    <path id="a8a2f845-7835-4384-81ba-3427dafe3db8" data-name="g3" class="eb0bd242-8fda-4d05-ab8e-c3484e501b6b" d="M70,26.49a2.45,2.45,0,0,0,.18-.54,2.13,2.13,0,0,0,.38-3.41c-.65-.64-1.11-.67-3.33-.8-1.18,0-3.08-.1-4.46-.1-3,0-6.66,0-9.4.2h-.9a2.22,2.22,0,0,0,.65-1.74,5.17,5.17,0,0,0,3.19-2.68c.79.07,1.3.12,1.55.12h.47a2.27,2.27,0,0,0,1.85-2.11,2,2,0,0,0-.39-1.37l1-.91a5.69,5.69,0,0,0,2.5-1.06l.18-.12a3.68,3.68,0,0,0,.9-.77,8.72,8.72,0,0,0,.8-.55l.28-.25h.28c.32-.41.67-.86,1-1.37C69,5.89,70.51,2.94,63,4.44s-9.5,2.35-9.5,2.35S49.64,4.58,38.78,5.5C35,5.82,32,6,29.71,6.16V18.48a5.23,5.23,0,0,0,3.37,2.07,2.23,2.23,0,0,0,.62,1,2.32,2.32,0,0,0,1.66.65h.28v.1h-14c-5.54.23-5.81.32-6.51,1.06a4.42,4.42,0,0,0,.57,4.54,2.13,2.13,0,0,0-1.1,2,2.28,2.28,0,0,0,2.3,2.09h.63a53,53,0,0,0,8.19-1.62c3.44-.86,5.64-1.33,7.22-1.64a4.59,4.59,0,0,0,2,1.64,4.11,4.11,0,0,0,1.51.35c.1.33.21.66.33,1,0,.12.12.47.22.88a3.85,3.85,0,0,0,.73,2,2.17,2.17,0,0,0,1.67,1.5,2.24,2.24,0,0,0,1.58.61h.35a2.32,2.32,0,0,0,1.15.3,2.28,2.28,0,0,0,.73-.12,2.15,2.15,0,0,0,.87-.52h.15a2.38,2.38,0,0,0,2.38-2.17s.16-.54.38-1.08a16.71,16.71,0,0,0,.66-2l.1-.42,1.07-.27A10.8,10.8,0,0,0,50.48,30a4.31,4.31,0,0,0,1.81-1.57c1.66.19,4.24.56,6.66,1,5.61,1,7.54,1.3,9.39,1.48l.86.09h.47a2.39,2.39,0,0,0,2.18-1.44,2.23,2.23,0,0,0-.6-2.48A2.55,2.55,0,0,0,70,26.49Z" transform="translate(0)"/>
    <g id="f24d8765-2cfc-45d3-8570-491c80fe0088" data-name="g2">
      <path id="e8de344b-0250-40ad-a3e3-dcd34da3c43a" data-name="19" class="b2a49257-9e74-4e95-841a-34d222a0291b" d="M37.67,8c-.25.06-.16.14.5.3s.67.19.67.39a1.06,1.06,0,0,0,.13.39,1.85,1.85,0,0,1,.15.57,2.11,2.11,0,0,0,.09.49,1.89,1.89,0,0,0,.36-.37c.35-.5.4-.49.35-.34s0,.15.17,0a1.64,1.64,0,0,0,.31-.28c.09-.09.12-.07.27.17a1.3,1.3,0,0,1,.17.57c0,.25,0,.28.1.16s.08-.13.28.21.2.33.2.13.08,0,.18.15a1,1,0,0,0,.25.34V11a3.11,3.11,0,0,0,.22.65,2.28,2.28,0,0,1,.13.78.87.87,0,0,0,0,.67l.2-.08c.17.34.15.27.17.17s.13-.67.28-1.23c.28-1.11.83-2.16.83-1.83v.16l.15-.21L44,9.86l.3.6a2.59,2.59,0,0,0,.34.58,5.77,5.77,0,0,0-.15-.83c-.15-.72-.15-1,0-1a.89.89,0,0,1,.29.15c.32.2.37.12.32,0s.1,0,.53.32a2,2,0,0,0,.62.43,4.56,4.56,0,0,0,.13-.62c0-.34.09-.6.15-.47s.14,0,.22-.3a.81.81,0,0,1,.5-.52,2.2,2.2,0,0,0,.38-.24,1.53,1.53,0,0,1,.55-.25c.55-.23.57-.23.32-.23A49.23,49.23,0,0,0,39,7.28a19.46,19.46,0,0,0-2.74.4,2.74,2.74,0,0,0,.74.17C37.44,8,37.92,7.9,37.67,8Z" transform="translate(0)"/>
      <path id="af7b603f-c229-45b5-848a-427d224c203a" data-name="18" class="b2a49257-9e74-4e95-841a-34d222a0291b" d="M59,11.36c2.3-.37,2.08-.31,3.25-1.08.43-.26.5-.45,0-.26s-.37.1.3-.23a7.48,7.48,0,0,0,1.14-.71c.44-.37,3.47-3.32,2.25-2.63A26.77,26.77,0,0,1,61,9a13.43,13.43,0,0,0-4.27,2.48h0c-.22.15-.24.26,0,.24Z" transform="translate(0)"/>
      <path id="bf416045-6916-4a19-acfb-a6d22a3ac86c" data-name="17" class="b2a49257-9e74-4e95-841a-34d222a0291b" d="M53.42,24.23c-4.46.2-5.16.31-4.78.31h0c.55.1,6.36,0,9.72-.15s8.29-.22,9.72-.11a3.3,3.3,0,0,0,.77,0A7.68,7.68,0,0,0,67,24.12C64.67,24,58.18,24,53.42,24.23Z" transform="translate(0)"/>
      <path id="eb1f38bb-c416-4938-b953-a69818d485a0" data-name="16" class="b2a49257-9e74-4e95-841a-34d222a0291b" d="M29.71,11.84c1.12.13.9,0,.44-.4-.14-.11-.3-.19-.44-.28Z" transform="translate(0)"/>
      <path id="fefde7dd-51ed-4583-a284-1c780e3589d9" data-name="15" class="b2a49257-9e74-4e95-841a-34d222a0291b" d="M42.57,19l.11.48v-.4a18.32,18.32,0,0,0,.09-2.77V13.91l-.2,1.41A10.77,10.77,0,0,0,42.57,19Z" transform="translate(0)"/>
      <path id="aa9f0209-0d48-4224-b8e0-ecc94c71984b" data-name="14" class="b2a49257-9e74-4e95-841a-34d222a0291b" d="M68.62,29.08c-1.33-.13-3.63-.51-7-1.16a79.83,79.83,0,0,0-9.84-1.52l-1.2-.08v-.48H64.47l2.87.1c.81,0,.68,0-.74-.1-3.42-.27-6.84-.39-11.5-.39H48.29c-.86,0-.15.19,1.12.19a3.42,3.42,0,0,1,1.15.13,1,1,0,0,1,0,.24c-.05.12-.07.12-.55.12a5.5,5.5,0,0,0-1.67.08l.95.08a4.86,4.86,0,0,1,1,.11c.09.08-.1.41-.44.77A3.4,3.4,0,0,1,47,28a7.87,7.87,0,0,1-2.59-.88,3.74,3.74,0,0,1-1.2-.92,6.46,6.46,0,0,1,.71-.44l.69-.39h-1l.68-.23c.67-.23.72-.26,1.9-1.24.9-.75,1.2-1,1.07-1s-.17-.17-.34-1.2l-.18-1.15.37-.35a1.72,1.72,0,0,1,.46-.34l1.67.47c.83.27,1.54.44,1.54.44A12.77,12.77,0,0,0,49.53,20l-1.3-.76.24-.2c.28-.27.3-.27,1.66-.27.77-.05,1.6-.19,1.88-.19a3.3,3.3,0,0,0,2.65-2.48c.17-.59.2-.59.35-.59l1.48.17a9.75,9.75,0,0,0,1.43.13,13.87,13.87,0,0,0-1.66-.52l-1.86-.53,1.13-.09,1.25-.15a8.44,8.44,0,0,0-1.41-.15l-1.52-.09-2,.64-2,.66L49.3,15c-.5-.47-.5-.53-.5-.72A10.74,10.74,0,0,1,50,12.05c.46-.76.56-1,.21-.57l-1.29,1.78L47.8,14.8v1.46l-.58.19-.58.2.26-.95c.09-.32.17-.65.23-1a7.38,7.38,0,0,0-1,1.16l-1,1.27-.92.29a9.19,9.19,0,0,0-1,.36h2.3l.27.56.26.55V23l-2,.42-2,.43-1.39-.53-1.42-.54c.06-.6.1-1.21.1-1.82l.12-1.82.33-.59.35-.61h1a.46.46,0,0,0,.17.32.49.49,0,0,0,.68,0h0a.47.47,0,0,0,0-.67.5.5,0,0,0-.68.05h0a5.65,5.65,0,0,1-.88-.37h.81l-.61-.26L40,16.68l-.91-1.22a8.09,8.09,0,0,0-1-1.11,14.16,14.16,0,0,0,.61,2.14c0,.1-.13.07-.78-.17L37.1,16V14.4L36,12.57l-1.15-1.8a8.36,8.36,0,0,0,.37,1.1c.21.55.48,1.31.56,1.63l.17.61-.38.57a4,4,0,0,1-.45.57l-1.4-.53L32.3,14.2H29.71v.15a3.21,3.21,0,0,0,.62,0h.93l-.43.13-1.12.32v.4c.44-.06.81-.1.87-.12s.2,0,.29.38a4,4,0,0,0,1,1.85c.75.71,1.45.93,3.65,1,1.18.07,1.38.1,1.56.23a1.24,1.24,0,0,1,.22.18,1.87,1.87,0,0,1-.39.22,13.4,13.4,0,0,0-1.58.86,9.09,9.09,0,0,0,1.25-.3l1.22-.31.36.34.37.35-.27,1a7.18,7.18,0,0,1-.33,1.09,7.76,7.76,0,0,0,1,1.3l1,1.28.67.24.67.25h-.8a2.22,2.22,0,0,0,.53.43l.57.37-.34.28c-.24.19-.5.38-.76.56l-.52.34a6.09,6.09,0,0,1-1,.39,4,4,0,0,1-2.66,0,2.86,2.86,0,0,1-1.17-1L35,26.24h1.25c1.51-.06,1.53-.16,0-.16H34.83v-.46c0-.1.2-.1.91-.1A8.55,8.55,0,0,0,38,25.37a11.5,11.5,0,0,0-1.66,0H34.69v-.15c0-.51-.06-.45,1.27-.51s1.85-.2.76-.2H34.08c-2.7-.1-10.09-.1-12.37,0s-5,.34-5,.34h.46c1.92-.12,5.43-.19,11.24-.12l6.11.12a1.71,1.71,0,0,1,0,.32v.34H32.16c-2.68,0-5.11.18-9.07.48-4.69.36-5.79.51-5.82.51h.21c1.67-.18,10.59-.62,15.17-.73h1.81V26a.66.66,0,0,1,0,.28l-1.15.15a59.64,59.64,0,0,0-8.14,1.77,57.29,57.29,0,0,1-8,1.63h.19a51,51,0,0,0,7.75-1.5c4-1,6.48-1.5,8.14-1.74l1-.15c.23,0,.23,0,.23.17a3.59,3.59,0,0,0,.32,1.15,2.12,2.12,0,0,0,1,.84c.35.2.5.2,1.78.2H39l.45,1.2.45,1.21.75.09,1.05.06h0a21.33,21.33,0,0,0,2.88-.1c.3,0,.26,0,.58-1.64l.17-.89H46a3.35,3.35,0,0,0,1,0l1.21-.3a10,10,0,0,0,1.19-.32,2,2,0,0,0,1.14-1.42,1.86,1.86,0,0,1,.1-.39,49.87,49.87,0,0,1,8.59,1.35c5.51,1,7.44,1.27,9.21,1.43l1,.12h.15A5.31,5.31,0,0,0,68.62,29.08ZM50.79,15.57c.22,0,.48.51.48,1,0,.2-.11.35,0,.35a2.29,2.29,0,0,0,.39-1.18v-.38l.68-.26a6.82,6.82,0,0,1,.9-.31c.21,0,.31,0,.31.24a2,2,0,0,1-.78,2.13,3.12,3.12,0,0,1-1.66.87l.1.07a3.58,3.58,0,0,1-2,0,3.21,3.21,0,0,1-1.35-1.2,1,1,0,0,1-.14-.37C47.79,16.45,50.57,15.61,50.79,15.57ZM37.64,17a3.37,3.37,0,0,1-1.08,1h0a3.15,3.15,0,0,1-2.26,0,3.19,3.19,0,0,1-1.41-.79A1.93,1.93,0,0,1,32,15.11a.64.64,0,0,1,.2-.39c.34.08.67.18,1,.29l.89.3v.2a2.64,2.64,0,0,0,.15,1.18l.1.22v-.4a1.2,1.2,0,0,1,.39-.88c.13-.07.48,0,1.66.41.82.26,1.5.52,1.5.52A3,3,0,0,1,37.64,17ZM40,27.6a1.72,1.72,0,0,0,.38-.08v.14a3.69,3.69,0,0,0-.15.93l-.11.83L40,28.93C39.79,28.29,39.79,27.68,40,27.6Zm4.73,3c0,.3,0,.31-.46.42v.06a5.61,5.61,0,0,1-1.29.09A8,8,0,0,1,40.7,31c-.58-.11-.58-.16-.58-.81v-.29l.12.24c.13.28.38.57.51.57a1.76,1.76,0,0,1,.44.15,3,3,0,0,0,1.29.14c1.7,0,2.14-.16,2.25-.91a1.63,1.63,0,0,1,0,.54ZM45,27.81a4.27,4.27,0,0,1-.28,1.32c-.1,0-.1-.2-.1-.49a3,3,0,0,0-.13-.72l-.1-.19-.45.24-.47.15-.2-.27-.2-.25-.23.29-.24.3-.16-.34a1.66,1.66,0,0,0-.22-.32,1.33,1.33,0,0,0-.26.27l-.24.25-.13-.25c-.13-.19-.25-.4-.38-.19s-.42.14-.6,0a.91.91,0,0,0-.22-.11,5.27,5.27,0,0,0,.52-.1,12.28,12.28,0,0,1,3.53,0l.56.13Z" transform="translate(0)"/>
      <path id="a704a390-769f-4c79-83f6-8dadecdd8582" data-name="13" class="b2a49257-9e74-4e95-841a-34d222a0291b" d="M44.58,31.88a1.13,1.13,0,0,0-.26.45c0-.15-.2-.13-.57.09a.63.63,0,0,0-.3.44c-.13.27-.07.37-.13.16s0-.21-.67,0a3.79,3.79,0,0,1-.66.18c-.12,0-.24.06-.24.2v.19l-.11-.23a1.1,1.1,0,0,0-.2-.28,2.92,2.92,0,0,1-.49-.19c-.38-.13-.38-.15-.5,0s-.11.15-.11,0a3,3,0,0,0-.69-1.64,13.85,13.85,0,0,1-.84-1.36,4.16,4.16,0,0,0-.44-.73s.52,2.26.54,2.29.13.49.25,1.05.23,1,.24,1a.38.38,0,0,0,.17-.3l.15-.31v.63a2.1,2.1,0,0,0,.08.66,1.6,1.6,0,0,0,.45-.23c.42-.26.54-.23.54.39a.8.8,0,0,0,.1.43,1.57,1.57,0,0,0,.3-.38l.25-.37.15.34c.16.31.26.36.38,0s.15-.34.25.17l-.12.12a1.77,1.77,0,0,0,.18.45,2,2,0,0,0,.32-.59c.27-.39.27-.54.27-.39a1,1,0,0,0,.15.31c.1.13.11.11.43-.34l.33-.49.1.44a1.21,1.21,0,0,0,.15.44,1.07,1.07,0,0,0,.15-.41,13.82,13.82,0,0,1,.49-1.41c.22-.56.41-1.14.58-1.71a6.87,6.87,0,0,0,.25-2,4.79,4.79,0,0,0-.24.92A4.34,4.34,0,0,1,44.58,31.88Z" transform="translate(0)"/>
    </g>
    <g id="a0167ba0-f7b1-4ea4-813c-06885704c23f" data-name="g1">
      <path id="b10b0e10-1fd1-49b1-b051-236fb89c38ef" data-name="12" class="a6c6f039-ddf6-40ec-ab86-37a860d5ef6e" d="M31.07,10.54a28.19,28.19,0,0,1-14.25,25.6C2.4,29.07-.18,11.36,2.21,1.8c.67,3.67,1.92,6,4.59,7.09a40.78,40.78,0,0,1,19.73-.17A10.94,10.94,0,0,0,30.47,2a55,55,0,0,1,.53,8.6Z" transform="translate(0)"/>
      <polygon id="eae3e2ed-8b24-44a9-982a-42b8681dc47e" data-name="11" class="bca94a12-021b-4ff7-9e5e-16d09555eb8d" points="14.51 7.21 16.91 12.62 18.55 7.14 14.51 7.21"/>
      <polygon id="b2891d44-2d86-40ba-8490-4dd3405504a7" data-name="10" class="bca94a12-021b-4ff7-9e5e-16d09555eb8d" points="1.78 15.06 5.74 17.14 2.16 17.38 1.78 15.06"/>
      <polygon id="fa9dc56a-bb65-481c-bae9-03d47e5816e7" data-name="9" class="bca94a12-021b-4ff7-9e5e-16d09555eb8d" points="2.76 19.29 5.17 20.25 3.12 20.79 2.76 19.29"/>
      <polygon id="eeacb895-5206-4133-b5ac-c13b238d7a35" data-name="8" class="bca94a12-021b-4ff7-9e5e-16d09555eb8d" points="31.14 16.59 27.87 17.95 30.54 18.34 31.14 16.59"/>
      <polygon id="efd16870-9a73-4868-83cb-35b6f9ef1a8e" data-name="7" class="bca94a12-021b-4ff7-9e5e-16d09555eb8d" points="29.82 20.49 27.41 21.19 29.43 21.9 29.82 20.49"/>
      <rect id="e0c4c567-8775-4a33-a3e6-127a150ba52d" data-name="6" class="bca94a12-021b-4ff7-9e5e-16d09555eb8d" x="0.48" y="26.43" width="7.83" height="0.97"/>
      <rect id="f312b182-0791-42b3-8ee2-391af60c9d22" data-name="5" class="bca94a12-021b-4ff7-9e5e-16d09555eb8d" x="0.48" y="24.07" width="7.83" height="0.97"/>
      <rect id="ee581da2-cc90-4ffb-9f32-89da025c573c" data-name="4" class="bca94a12-021b-4ff7-9e5e-16d09555eb8d" x="24.39" y="26.43" width="7.83" height="0.97"/>
      <rect id="b78a33ea-6034-439c-8a79-7a32f1b6d47a" data-name="3" class="bca94a12-021b-4ff7-9e5e-16d09555eb8d" x="24.39" y="24.07" width="7.83" height="0.97"/>
      <path id="b0dbee40-b9f7-4245-8d96-d65890d2fd43" data-name="2" class="bca94a12-021b-4ff7-9e5e-16d09555eb8d" d="M21.6,18.53H8.87v-.87h4a7.75,7.75,0,0,0,0-5,1.15,1.15,0,0,0-1.1-.62A3.8,3.8,0,0,0,8.52,14.4l-.79-.3a4.79,4.79,0,0,1,4.06-3,2,2,0,0,1,1.81,1.08,8.15,8.15,0,0,1,.14,5.49h7a5.63,5.63,0,0,1,6.06-3.92v1a4.8,4.8,0,0,0-5.19,3.08H25.4v.84Z" transform="translate(0)"/>
      <path id="af2f8481-3a59-4653-be85-17a8147527b2" data-name="1" class="bca94a12-021b-4ff7-9e5e-16d09555eb8d" d="M22.2,22.79a4.65,4.65,0,0,1-1-4.24h-.89a4.67,4.67,0,0,0,.57,3.68H12.11a20.28,20.28,0,0,0,1.42-3.68h-.92A18,18,0,0,1,11,22.48l-.19.35,5,3.07L13,27.68l.48.7,3.12-2L20,28.5l.48-.7-3.12-1.89,4.8-3.14Zm-5.62,2.57L12.9,23h7.21Zm16-15.86A38.05,38.05,0,0,0,31.19.07c-2.4.9-6.61,3.7-7.59,6.62a49.08,49.08,0,0,0-14.42.18C8.46,3.73,4.59,1.34,1.68,0A22.6,22.6,0,0,0,.05,10.05h0A31.86,31.86,0,0,0,16.68,38,31.26,31.26,0,0,0,32.53,9.71ZM24.15,6.81Zm6.92,3.71a28.19,28.19,0,0,1-14.23,25.6C2.43,29-.22,11.34,2.23,1.8c.68,3.65,1.93,5.93,4.59,7a41,41,0,0,1,19.73-.16A10.91,10.91,0,0,0,30.49,2,53.51,53.51,0,0,1,31,10.54Z" transform="translate(0)"/>
    </g>
  </g>
</svg>
